# xmcd
#
# Track frame offsets: 
#        150
#        19925
#        43690
#
# Disc length: 890 seconds
#
# Revision: 4
# Processed by: cddbd v1.5.2PL0 Copyright (c) Steve Scherf et al.
# Submitted via: ExactAudioCopy v1.1
#
DISCID=1e037803
DTITLE=En Vogue - [CD Single] Hold On
DYEAR=1990
DGENRE=R&B
TTITLE0=Hold On (7 Inch Edit)
TTITLE1=Hold On (Extended Version)
TTITLE2=Hold On (Radio Version With Intro)
EXTD=
EXTT0=
EXTT1=
EXTT2=
PLAYORDER=
